<mxfile host="Electron" modified="2023-05-31T09:14:03.304Z" agent="Mozilla/5.0 (X11; Linux x86_64) AppleWebKit/537.36 (KHTML, like Gecko) draw.io/21.2.8 Chrome/112.0.5615.165 Electron/24.2.0 Safari/537.36" etag="VBA0ngzxU9eNM-HGg24-" version="21.2.8" type="device">
  <diagram name="第 1 页" id="EdE_sk0UwNKMecVUaQF3">
    <mxGraphModel dx="948" dy="607" grid="1" gridSize="10" guides="1" tooltips="1" connect="1" arrows="1" fold="1" page="1" pageScale="1" pageWidth="827" pageHeight="1169" math="0" shadow="0">
      <root>
        <mxCell id="0" />
        <mxCell id="1" parent="0" />
        <mxCell id="Telby6B1AjVy7NZIH0qK-11" style="rounded=0;orthogonalLoop=1;jettySize=auto;html=1;entryX=0;entryY=1;entryDx=0;entryDy=0;strokeWidth=2;endArrow=none;endFill=0;exitX=0.5;exitY=0;exitDx=0;exitDy=0;" edge="1" parent="1" source="Telby6B1AjVy7NZIH0qK-2" target="Telby6B1AjVy7NZIH0qK-3">
          <mxGeometry relative="1" as="geometry" />
        </mxCell>
        <mxCell id="Telby6B1AjVy7NZIH0qK-27" style="rounded=0;orthogonalLoop=1;jettySize=auto;html=1;exitX=1;exitY=0.5;exitDx=0;exitDy=0;entryX=0;entryY=0.5;entryDx=0;entryDy=0;strokeWidth=2;endArrow=none;endFill=0;" edge="1" parent="1" source="Telby6B1AjVy7NZIH0qK-2" target="Telby6B1AjVy7NZIH0qK-24">
          <mxGeometry relative="1" as="geometry" />
        </mxCell>
        <mxCell id="Telby6B1AjVy7NZIH0qK-2" value="" style="ellipse;whiteSpace=wrap;html=1;fillColor=#d5e8d4;strokeColor=#82b366;shadow=1;" vertex="1" parent="1">
          <mxGeometry x="200" y="370" width="120" height="80" as="geometry" />
        </mxCell>
        <mxCell id="Telby6B1AjVy7NZIH0qK-12" style="rounded=0;orthogonalLoop=1;jettySize=auto;html=1;exitX=0.5;exitY=0;exitDx=0;exitDy=0;entryX=0;entryY=1;entryDx=0;entryDy=0;endArrow=none;endFill=0;strokeWidth=2;" edge="1" parent="1" source="Telby6B1AjVy7NZIH0qK-3" target="Telby6B1AjVy7NZIH0qK-4">
          <mxGeometry relative="1" as="geometry" />
        </mxCell>
        <mxCell id="Telby6B1AjVy7NZIH0qK-3" value="" style="ellipse;whiteSpace=wrap;html=1;fillColor=#d5e8d4;strokeColor=#82b366;shadow=1;" vertex="1" parent="1">
          <mxGeometry x="300" y="240" width="120" height="80" as="geometry" />
        </mxCell>
        <mxCell id="Telby6B1AjVy7NZIH0qK-15" style="rounded=0;orthogonalLoop=1;jettySize=auto;html=1;exitX=1;exitY=0.5;exitDx=0;exitDy=0;endArrow=none;endFill=0;strokeWidth=2;" edge="1" parent="1" source="Telby6B1AjVy7NZIH0qK-4" target="Telby6B1AjVy7NZIH0qK-14">
          <mxGeometry relative="1" as="geometry" />
        </mxCell>
        <mxCell id="Telby6B1AjVy7NZIH0qK-4" value="" style="ellipse;whiteSpace=wrap;html=1;fillColor=#d5e8d4;strokeColor=#82b366;shadow=1;" vertex="1" parent="1">
          <mxGeometry x="390" y="120" width="120" height="80" as="geometry" />
        </mxCell>
        <mxCell id="Telby6B1AjVy7NZIH0qK-5" value="&lt;b&gt;&lt;font color=&quot;#ff0000&quot; style=&quot;font-size: 18px;&quot;&gt;节点名称&lt;/font&gt;&lt;/b&gt;" style="text;html=1;strokeColor=none;fillColor=none;align=center;verticalAlign=middle;whiteSpace=wrap;rounded=0;" vertex="1" parent="1">
          <mxGeometry x="220" y="460" width="80" height="30" as="geometry" />
        </mxCell>
        <mxCell id="Telby6B1AjVy7NZIH0qK-6" value="&lt;b&gt;&lt;font color=&quot;#ff0000&quot; style=&quot;font-size: 18px;&quot;&gt;命名空间&lt;/font&gt;&lt;/b&gt;" style="text;html=1;strokeColor=none;fillColor=none;align=center;verticalAlign=middle;whiteSpace=wrap;rounded=0;" vertex="1" parent="1">
          <mxGeometry x="320" y="330" width="80" height="30" as="geometry" />
        </mxCell>
        <mxCell id="Telby6B1AjVy7NZIH0qK-7" value="&lt;b&gt;&lt;font color=&quot;#ff0000&quot; style=&quot;font-size: 18px;&quot;&gt;根&lt;/font&gt;&lt;/b&gt;" style="text;html=1;strokeColor=none;fillColor=none;align=center;verticalAlign=middle;whiteSpace=wrap;rounded=0;" vertex="1" parent="1">
          <mxGeometry x="410" y="210" width="80" height="30" as="geometry" />
        </mxCell>
        <mxCell id="Telby6B1AjVy7NZIH0qK-8" value="&lt;b&gt;&lt;font style=&quot;font-size: 16px;&quot;&gt;turtlesim&lt;/font&gt;&lt;/b&gt;" style="text;html=1;strokeColor=none;fillColor=none;align=center;verticalAlign=middle;whiteSpace=wrap;rounded=0;" vertex="1" parent="1">
          <mxGeometry x="230" y="395" width="60" height="30" as="geometry" />
        </mxCell>
        <mxCell id="Telby6B1AjVy7NZIH0qK-9" value="&lt;b&gt;&lt;font style=&quot;font-size: 16px;&quot;&gt;t1&lt;/font&gt;&lt;/b&gt;" style="text;html=1;strokeColor=none;fillColor=none;align=center;verticalAlign=middle;whiteSpace=wrap;rounded=0;" vertex="1" parent="1">
          <mxGeometry x="330" y="265" width="60" height="30" as="geometry" />
        </mxCell>
        <mxCell id="Telby6B1AjVy7NZIH0qK-10" value="&lt;b&gt;&lt;font style=&quot;font-size: 16px;&quot;&gt;/&lt;/font&gt;&lt;/b&gt;" style="text;html=1;strokeColor=none;fillColor=none;align=center;verticalAlign=middle;whiteSpace=wrap;rounded=0;" vertex="1" parent="1">
          <mxGeometry x="420" y="145" width="60" height="30" as="geometry" />
        </mxCell>
        <mxCell id="Telby6B1AjVy7NZIH0qK-13" value="&lt;ul style=&quot;font-size: 18px;&quot;&gt;&lt;br&gt;&lt;li&gt;全局话题(话题参考&lt;strong&gt;ROS系统&lt;/strong&gt;，&lt;strong&gt;与节点命名空间平级&lt;/strong&gt;)；&lt;/li&gt;&lt;br&gt;&lt;li&gt;相对话题(话题参考的是&lt;strong&gt;节点的命名空间&lt;/strong&gt;，&lt;strong&gt;与节点名称平级&lt;/strong&gt;)；&lt;/li&gt;&lt;br&gt;&lt;li&gt;私有话题(话题参考&lt;strong&gt;节点名称&lt;/strong&gt;，是&lt;strong&gt;节点名称的子级&lt;/strong&gt;)。&lt;/li&gt;&lt;br&gt;&lt;/ul&gt;" style="text;whiteSpace=wrap;html=1;" vertex="1" parent="1">
          <mxGeometry x="826" y="75" width="560" height="190" as="geometry" />
        </mxCell>
        <mxCell id="Telby6B1AjVy7NZIH0qK-14" value="" style="rounded=1;whiteSpace=wrap;html=1;fillColor=#f8cecc;strokeColor=#b85450;" vertex="1" parent="1">
          <mxGeometry x="647" y="190" width="133" height="60" as="geometry" />
        </mxCell>
        <mxCell id="Telby6B1AjVy7NZIH0qK-16" value="&lt;b&gt;&lt;font color=&quot;#0000ff&quot; style=&quot;font-size: 18px;&quot;&gt;全局话题&lt;/font&gt;&lt;/b&gt;" style="text;html=1;strokeColor=none;fillColor=none;align=center;verticalAlign=middle;whiteSpace=wrap;rounded=0;" vertex="1" parent="1">
          <mxGeometry x="673.5" y="160" width="80" height="30" as="geometry" />
        </mxCell>
        <mxCell id="Telby6B1AjVy7NZIH0qK-17" value="&lt;b&gt;&lt;font style=&quot;font-size: 16px;&quot;&gt;/ns&lt;/font&gt;&lt;/b&gt;" style="text;html=1;strokeColor=none;fillColor=none;align=center;verticalAlign=middle;whiteSpace=wrap;rounded=0;" vertex="1" parent="1">
          <mxGeometry x="683.5" y="205" width="60" height="30" as="geometry" />
        </mxCell>
        <mxCell id="Telby6B1AjVy7NZIH0qK-21" style="rounded=0;orthogonalLoop=1;jettySize=auto;html=1;entryX=1.014;entryY=0.661;entryDx=0;entryDy=0;entryPerimeter=0;strokeWidth=2;endArrow=none;endFill=0;" edge="1" parent="1" source="Telby6B1AjVy7NZIH0qK-18" target="Telby6B1AjVy7NZIH0qK-3">
          <mxGeometry relative="1" as="geometry" />
        </mxCell>
        <mxCell id="Telby6B1AjVy7NZIH0qK-18" value="" style="rounded=1;whiteSpace=wrap;html=1;fillColor=#f8cecc;strokeColor=#b85450;" vertex="1" parent="1">
          <mxGeometry x="647" y="350" width="133" height="60" as="geometry" />
        </mxCell>
        <mxCell id="Telby6B1AjVy7NZIH0qK-19" value="&lt;b&gt;&lt;font color=&quot;#0000ff&quot; style=&quot;font-size: 18px;&quot;&gt;相对话题&lt;/font&gt;&lt;/b&gt;" style="text;html=1;strokeColor=none;fillColor=none;align=center;verticalAlign=middle;whiteSpace=wrap;rounded=0;" vertex="1" parent="1">
          <mxGeometry x="673.5" y="320" width="80" height="30" as="geometry" />
        </mxCell>
        <mxCell id="Telby6B1AjVy7NZIH0qK-20" value="&lt;b&gt;&lt;font style=&quot;font-size: 16px;&quot;&gt;/t1/move&lt;/font&gt;&lt;/b&gt;" style="text;html=1;strokeColor=none;fillColor=none;align=center;verticalAlign=middle;whiteSpace=wrap;rounded=0;" vertex="1" parent="1">
          <mxGeometry x="683.5" y="365" width="60" height="30" as="geometry" />
        </mxCell>
        <mxCell id="Telby6B1AjVy7NZIH0qK-24" value="" style="rounded=1;whiteSpace=wrap;html=1;fillColor=#f8cecc;strokeColor=#b85450;" vertex="1" parent="1">
          <mxGeometry x="647" y="510" width="133" height="60" as="geometry" />
        </mxCell>
        <mxCell id="Telby6B1AjVy7NZIH0qK-25" value="&lt;b&gt;&lt;font color=&quot;#0000ff&quot; style=&quot;font-size: 18px;&quot;&gt;私有话题&lt;/font&gt;&lt;/b&gt;" style="text;html=1;strokeColor=none;fillColor=none;align=center;verticalAlign=middle;whiteSpace=wrap;rounded=0;" vertex="1" parent="1">
          <mxGeometry x="673.5" y="480" width="80" height="30" as="geometry" />
        </mxCell>
        <mxCell id="Telby6B1AjVy7NZIH0qK-26" value="&lt;b&gt;&lt;font style=&quot;font-size: 16px;&quot;&gt;/t1/turltesim/eat&lt;/font&gt;&lt;/b&gt;" style="text;html=1;strokeColor=none;fillColor=none;align=center;verticalAlign=middle;whiteSpace=wrap;rounded=0;" vertex="1" parent="1">
          <mxGeometry x="642" y="525" width="143" height="30" as="geometry" />
        </mxCell>
        <mxCell id="Telby6B1AjVy7NZIH0qK-28" value="&lt;ul style=&quot;font-size: 18px;&quot;&gt;&lt;b&gt;设置话题名称的语法：&lt;/b&gt;&lt;/ul&gt;&lt;ul style=&quot;font-size: 18px;&quot;&gt;全局话题：/ns&lt;/ul&gt;&lt;ul style=&quot;font-size: 18px;&quot;&gt;相对话题：move（自动添加命名空间）&lt;/ul&gt;&lt;ul style=&quot;font-size: 18px;&quot;&gt;私有话题：～/eat（自动添加命名空间与节点名称前缀）&lt;/ul&gt;" style="text;whiteSpace=wrap;html=1;align=left;" vertex="1" parent="1">
          <mxGeometry x="826" y="260" width="560" height="190" as="geometry" />
        </mxCell>
      </root>
    </mxGraphModel>
  </diagram>
</mxfile>
